<svg xmlns="http://www.w3.org/2000/svg" viewBox="0 0 180 180">
  <defs>
    <linearGradient id="bg" x1="0%" y1="0%" x2="100%" y2="100%">
      <stop offset="0%" style="stop-color:#3B82F6"/>
      <stop offset="100%" style="stop-color:#1D4ED8"/>
    </linearGradient>
  </defs>
  <rect width="180" height="180" rx="36" fill="url(#bg)"/>
  <path d="M135 81c0-16.2-13.5-29.7-29.7-29.7-11.7 0-21.6 7.2-26.1 17.1-1.44-0.36-2.88-0.72-4.5-0.72-9 0-16.2 7.2-16.2 16.2 0 1.44 0.27 2.88 0.72 4.32-10.8 2.7-18.9 12.24-18.9 23.58 0 13.5 10.8 24.3 24.3 24.3h68.4c13.5 0 24.3-10.8 24.3-24.3 0-10.8-7.2-20.16-17.1-23.04-3.6-1.26-6.12-2.34-5.22-7.74z" fill="white"/>
</svg>
