<svg xmlns="http://www.w3.org/2000/svg" viewBox="0 0 100 100">
  <defs>
    <linearGradient id="bg" x1="0%" y1="0%" x2="100%" y2="100%">
      <stop offset="0%" style="stop-color:#3B82F6"/>
      <stop offset="100%" style="stop-color:#1D4ED8"/>
    </linearGradient>
  </defs>
  <rect width="100" height="100" rx="20" fill="url(#bg)"/>
  <path d="M75 45c0-9-7.5-16.5-16.5-16.5-6.5 0-12 4-14.5 9.5-0.8-0.2-1.6-0.4-2.5-0.4-5 0-9 4-9 9 0 0.8 0.15 1.6 0.4 2.4-6 1.5-10.5 6.8-10.5 13.1 0 7.5 6 13.5 13.5 13.5h38c7.5 0 13.5-6 13.5-13.5 0-6-4-11.2-9.5-12.8-2-0.7-3.4-1.3-2.9-4.3z" fill="white"/>
</svg>
